<svg width="100" height="17" viewBox="0 0 100 17" fill="none" xmlns="http://www.w3.org/2000/svg">
<path d="M0.264205 16H3.33949V9.99148H9.58239V16H12.6506V1.45455H9.58239V7.45597H3.33949V1.45455H0.264205V16ZM20.0582 16.2131C23.3679 16.2131 25.4276 13.9474 25.4276 10.5881C25.4276 7.20739 23.3679 4.94886 20.0582 4.94886C16.7486 4.94886 14.6889 7.20739 14.6889 10.5881C14.6889 13.9474 16.7486 16.2131 20.0582 16.2131ZM20.0724 13.8693C18.5455 13.8693 17.7642 12.4702 17.7642 10.5668C17.7642 8.66335 18.5455 7.2571 20.0724 7.2571C21.571 7.2571 22.3523 8.66335 22.3523 10.5668C22.3523 12.4702 21.571 13.8693 20.0724 13.8693ZM33.1974 5.09091H31.1449V2.47727H28.1193V5.09091H26.6278V7.36364H28.1193V13.0455C28.1051 15.1832 29.5611 16.2415 31.7557 16.1491C32.5369 16.1207 33.0909 15.9645 33.3963 15.8651L32.9205 13.6136C32.7713 13.642 32.4517 13.7131 32.1676 13.7131C31.5639 13.7131 31.1449 13.4858 31.1449 12.6477V7.36364H33.1974V5.09091ZM48.0589 6.54688C47.6541 3.1875 45.1115 1.25568 41.745 1.25568C37.9027 1.25568 34.9695 3.96875 34.9695 8.72727C34.9695 13.4716 37.853 16.1989 41.745 16.1989C45.4737 16.1989 47.7251 13.7202 48.0589 11.0426L44.9482 11.0284C44.657 12.5838 43.4354 13.4787 41.7947 13.4787C39.5859 13.4787 38.0874 11.8381 38.0874 8.72727C38.0874 5.7017 39.5646 3.97585 41.8161 3.97585C43.4993 3.97585 44.7138 4.94886 44.9482 6.54688H48.0589ZM55.1364 16.2131C58.446 16.2131 60.5057 13.9474 60.5057 10.5881C60.5057 7.20739 58.446 4.94886 55.1364 4.94886C51.8267 4.94886 49.767 7.20739 49.767 10.5881C49.767 13.9474 51.8267 16.2131 55.1364 16.2131ZM55.1506 13.8693C53.6236 13.8693 52.8423 12.4702 52.8423 10.5668C52.8423 8.66335 53.6236 7.2571 55.1506 7.2571C56.6491 7.2571 57.4304 8.66335 57.4304 10.5668C57.4304 12.4702 56.6491 13.8693 55.1506 13.8693ZM68.3395 5.09091H66.1733V4.35938C66.1733 3.62074 66.4716 3.1875 67.3594 3.1875C67.7216 3.1875 68.0909 3.26562 68.3324 3.34375L68.8651 1.07102C68.4886 0.957386 67.6577 0.772726 66.7273 0.772726C64.6747 0.772726 63.1477 1.9304 63.1477 4.30256V5.09091H61.6065V7.36364H63.1477V16H66.1733V7.36364H68.3395V5.09091ZM76.0543 5.09091H73.8881V4.35938C73.8881 3.62074 74.1864 3.1875 75.0742 3.1875C75.4364 3.1875 75.8058 3.26562 76.0472 3.34375L76.5799 1.07102C76.2035 0.957386 75.3725 0.772726 74.4421 0.772726C72.3896 0.772726 70.8626 1.9304 70.8626 4.30256V5.09091H69.3214V7.36364H70.8626V16H73.8881V7.36364H76.0543V5.09091ZM82.4837 16.2131C85.1825 16.2131 87.0007 14.8991 87.4268 12.875L84.6286 12.6903C84.3232 13.5213 83.5419 13.9545 82.5334 13.9545C81.0206 13.9545 80.0618 12.9531 80.0618 11.3267V11.3196H87.4908V10.4886C87.4908 6.78125 85.2464 4.94886 82.3629 4.94886C79.1527 4.94886 77.0717 7.22869 77.0717 10.5952C77.0717 14.054 79.1243 16.2131 82.4837 16.2131ZM80.0618 9.4446C80.1257 8.2017 81.0703 7.20739 82.4126 7.20739C83.7266 7.20739 84.6357 8.14489 84.6428 9.4446H80.0618ZM94.4368 16.2131C97.1357 16.2131 98.9538 14.8991 99.38 12.875L96.5817 12.6903C96.2763 13.5213 95.495 13.9545 94.4865 13.9545C92.9737 13.9545 92.0149 12.9531 92.0149 11.3267V11.3196H99.4439V10.4886C99.4439 6.78125 97.1996 4.94886 94.3161 4.94886C91.1058 4.94886 89.0249 7.22869 89.0249 10.5952C89.0249 14.054 91.0774 16.2131 94.4368 16.2131ZM92.0149 9.4446C92.0788 8.2017 93.0234 7.20739 94.3658 7.20739C95.6797 7.20739 96.5888 8.14489 96.5959 9.4446H92.0149Z" fill="black"/>
</svg>
